<?xml version="1.0" encoding="UTF-8"?>
<svg id="Capa_2" data-name="Capa 2" xmlns="http://www.w3.org/2000/svg" viewBox="0 0 955.34 960">
  <defs>
    <style>
      .cls-1 {
        fill: #fff;
      }
    </style>
  </defs>
  <g id="Capa_3" data-name="Capa 3">
    <g>
      <path class="cls-1" d="M683.72,248.3c-36.05,0-70.48,7.03-101.97,19.8,3.34,45.18-.79,91.81-12.2,133.21,30.55-24.34,69.98-37.99,112.65-35.27,83.07,5.28,149.69,73.62,152.98,156.79,3.04,76.95-47,142.69-116.5,163.5-14.92,4.52-30.76,6.93-47.18,6.93-60.82,0-113.87-33.13-142.16-82.37,0,105.51,58.02,148.89,109.83,166.59,46.51,15.89,97.21,13.51,143.01-4.32,101.34-39.43,173.16-137.93,173.16-253.21,0-150.05-121.6-271.65-271.62-271.65Z"/>
      <path class="cls-1" d="M34.51,874.94L0,958.8h14.62l6.45-16.18h36.05l6.39,16.18h14.86l-34.27-83.87h-9.59ZM25.84,930.65l13.33-33.43,13.21,33.43h-26.54ZM160.43,874.94h13.78v83.87h-9.59l-44.33-57.87v57.87h-13.78v-83.87h9.59l44.33,57.87v-57.87ZM209.55,874.94h13.78v83.87h-13.78v-83.87ZM315.34,874.94h14.74l-34.15,83.87h-9.59l-33.91-83.87h14.98l23.85,61.2,24.07-61.2ZM372.97,946.22h42.65v12.58h-56.43v-83.87h55.83v12.58h-42.05v22.4h38.58v12.1h-38.58v24.2ZM492.31,920.22c3.99-2,7.09-4.79,9.29-8.39,2.2-3.59,3.29-7.83,3.29-12.7s-1.1-8.76-3.29-12.4c-2.2-3.63-5.29-6.51-9.29-8.63-4-2.11-8.63-3.17-13.9-3.17h-31.39v83.87h13.78v-35.58h3.55l28.68,35.58h17.37l-29.46-35.71c4.23-.28,8.03-1.2,11.37-2.87ZM460.79,886.91h17.01c4.23,0,7.51,1.2,9.82,3.6,2.31,2.4,3.47,5.35,3.47,8.86,0,3.92-1.18,6.97-3.53,9.17-2.36,2.2-5.65,3.3-9.88,3.3h-16.89v-24.92ZM586,924.42c1.44,2.96,2.16,6.67,2.16,11.14,0,7.51-2.66,13.46-7.97,17.85-5.31,4.39-12.48,6.59-21.51,6.59-6.63,0-12.26-1.2-16.89-3.59-4.63-2.4-8.79-5.91-12.46-10.54l9.35-9.35c2.31,3.35,5.07,5.97,8.27,7.85,3.19,1.88,7.27,2.82,12.22,2.82,4.63,0,8.33-.96,11.08-2.88,2.75-1.92,4.13-4.55,4.13-7.91,0-2.79-.72-5.07-2.16-6.83s-3.34-3.21-5.69-4.37c-2.36-1.16-4.95-2.2-7.79-3.12-2.84-.91-5.67-1.95-8.51-3.11-2.84-1.16-5.43-2.62-7.79-4.37-2.36-1.76-4.25-4.03-5.69-6.83-1.44-2.8-2.16-6.35-2.16-10.66,0-4.95,1.22-9.17,3.65-12.64,2.44-3.47,5.73-6.13,9.88-7.97,4.15-1.84,8.79-2.76,13.9-2.76,5.51,0,10.44,1.08,14.8,3.24,4.35,2.16,7.89,4.91,10.6,8.27l-9.35,9.34c-2.39-2.71-4.89-4.73-7.49-6.05s-5.57-1.98-8.93-1.98c-4.15,0-7.41.84-9.76,2.52-2.36,1.68-3.53,4.03-3.53,7.07,0,2.56.72,4.61,2.16,6.17,1.44,1.56,3.33,2.88,5.69,3.96,2.35,1.08,4.95,2.1,7.79,3.05,2.83.96,5.67,2.04,8.51,3.24,2.83,1.2,5.43,2.73,7.79,4.61,2.35,1.88,4.25,4.29,5.69,7.25ZM644.71,874.94l-34.51,83.87h14.62l6.45-16.18h36.05l6.39,16.18h14.86l-34.27-83.87h-9.59ZM636.04,930.65l13.33-33.43,13.21,33.43h-26.54ZM762,920.22c3.99-2,7.09-4.79,9.29-8.39,2.2-3.59,3.29-7.83,3.29-12.7s-1.1-8.76-3.29-12.4c-2.2-3.63-5.29-6.51-9.29-8.63-4-2.11-8.63-3.17-13.9-3.17h-31.39v83.87h13.78v-35.58h3.55l28.68,35.58h17.37l-29.46-35.71c4.23-.28,8.03-1.2,11.37-2.87ZM730.49,886.91h17.01c4.23,0,7.51,1.2,9.82,3.6,2.31,2.4,3.47,5.35,3.47,8.86,0,3.92-1.18,6.97-3.53,9.17-2.36,2.2-5.65,3.3-9.88,3.3h-16.89v-24.92ZM807.41,874.94h13.78v83.87h-13.78v-83.87ZM934.35,900.04c-2.2-5.23-5.25-9.83-9.17-13.78-3.91-3.95-8.45-7.03-13.6-9.23-5.15-2.2-10.72-3.3-16.71-3.3s-11.56,1.1-16.71,3.3c-5.15,2.2-9.67,5.27-13.54,9.23-3.87,3.95-6.91,8.53-9.1,13.72-2.2,5.19-3.3,10.78-3.3,16.77s1.1,11.61,3.3,16.83c2.2,5.23,5.25,9.83,9.17,13.78,3.91,3.95,8.47,7.05,13.66,9.28,5.19,2.24,10.78,3.35,16.77,3.35s11.44-1.12,16.59-3.35c5.15-2.23,9.66-5.31,13.54-9.23,3.87-3.91,6.91-8.49,9.11-13.72,2.2-5.23,3.3-10.84,3.3-16.83s-1.1-11.6-3.3-16.83ZM919.85,932.38c-2.44,4.51-5.79,8.05-10.06,10.6-4.27,2.56-9.25,3.83-14.92,3.83-4.15,0-7.99-.74-11.5-2.22-3.51-1.48-6.53-3.53-9.04-6.17-2.52-2.63-4.47-5.81-5.87-9.52-1.4-3.72-2.1-7.77-2.1-12.16,0-5.91,1.22-11.1,3.65-15.57,2.44-4.47,5.79-7.97,10.06-10.48,4.27-2.52,9.2-3.77,14.8-3.77,4.23,0,8.09.72,11.56,2.16,3.48,1.44,6.49,3.5,9.05,6.17,2.55,2.68,4.53,5.83,5.93,9.46,1.4,3.64,2.1,7.65,2.1,12.04,0,5.91-1.22,11.13-3.65,15.64Z"/>
      <path class="cls-1" d="M404.28,6.72h472.35v172.83h-295.04l-8.49,30.72s-28.19-123.47-168.79-203.55h-.03Z"/>
      <path class="cls-1" d="M782.16,510.66c-1.11,2.68-3.79,4.46-6.81,4.46h-11.68v85.89c0,3.91-3.28,7.11-7.32,7.11h-59.09c-4.04,0-7.32-3.19-7.32-7.11v-52.4h-22.59l-25.03-.06v52.46c0,3.91-3.28,7.11-7.32,7.11h-58.87c-4.04,0-7.32-3.19-7.32-7.11v-85.8l-11.41.12h-.09c-2.98,0-5.69-1.75-6.81-4.46-1.14-2.71-.42-5.81,1.78-7.83,0,0,93.18-85.01,108.08-98.6l1.99-1.81c1.42-1.29,3.22-1.93,5.03-1.93s3.64.66,5.06,1.96l107.99,100.19c2.17,2.02,2.86,5.09,1.75,7.77l-.03.03Z"/>
      <path class="cls-1" d="M577.8,779.41c-28.07-19.49-50.3-47.1-64.62-80.49-15.05-35.08-22.43-72.31-21.93-110.64.42-31.65,5.38-63.11,14.36-90.98,5.16-15.99,11.96-31.46,18.53-46.41,6.82-15.52,13.87-31.56,18.87-47.81,18.06-58.67,19.82-130.26,4.7-191.49-7.06-28.6-18.17-54.52-33.03-77.04l-1.48-2.25c-8.05-12.21-17.17-26.05-27.44-35.47-.59-.54-1.33-1.24-2.18-2.05.15.34.29.71.44,1.06,2.8,6.41,5.16,13.39,7.12,21.13,5.24,20.65,6.73,43.6,4.43,68.21-3.43,36.43-14.46,74.51-31.89,110.14-10.18,20.84-22.76,40.55-34.93,59.61-9.1,14.26-18.51,29-26.71,43.93-15.87,28.91-25.11,61.46-27.49,96.72-1.11,16.52-.55,33.24,1.52,49.91,4.32,34.85,15.42,69.51,32.73,101.93,5.24,9.81,11,19.43,17.35,28.77,40.8,63.88,90.92,90.93,142.93,102.87,3.46.79,6.92,1.52,10.39,2.19-.65-.73-1.22-1.36-1.67-1.82Z"/>
      <path class="cls-1" d="M577.62,781.5c-1.02-.68-2.02-1.39-3.02-2.09.45.47,1.02,1.1,1.67,1.82.45.09.9.18,1.35.27Z"/>
      <path class="cls-1" d="M367.74,343.82c.18-.27.57-.81.57-.81,55.05-76.37,10.96-196.65-93.27-196.65-65.32,0-118.29,36.59-118.29,122.93,0,9.58,1.05,18.91,3.04,27.86H12.83c-2.86-14.97-4.37-30.36-4.37-46.14C8.47,112.39,124.35-.45,267.31,0c51.3.17,99.5,13.49,140.66,36.54,23.45,13.13,42.09,33.41,54.09,57.45h0s.17.32.17.32c4.24,7.61,7.56,16.3,10.16,26.59,4.79,18.87,6.14,39.99,4,62.78-3.25,34.52-13.74,70.68-30.33,104.59-9.79,20.02-22.11,39.34-34.04,58.03-9.24,14.48-18.79,29.44-27.25,44.84-17,30.98-26.9,65.75-29.43,103.36-1.53,22.8-.1,45.91,4.02,68.82l-63.66,84.1h91.83c6.45,12.89,13.77,25.47,22.02,37.59,40.31,63.13,90.39,92.52,141.06,106.57H12.74l227.88-290.88c16.38-20.9,32.73-41.8,49.12-62.7"/>
    </g>
  </g>
</svg>