<?xml version="1.0" encoding="UTF-8"?>
<svg id="Capa_2" data-name="Capa 2" xmlns="http://www.w3.org/2000/svg" viewBox="0 0 187.16 239.44">
  <defs>
    <style>
      .cls-1 {
        fill: #e45312;
      }

      .cls-2 {
        fill: #473e1b;
      }

      .cls-3 {
        fill: #463e1c;
      }
    </style>
  </defs>
  <g id="Elementos">
    <g>
      <g>
        <path class="cls-1" d="M133.47,49.08c-7.13,0-13.93,1.39-20.16,3.91.66,8.93-.16,18.15-2.41,26.33,6.04-4.81,13.83-7.51,22.27-6.97,16.42,1.04,29.59,14.55,30.24,30.99.6,15.21-9.29,28.21-23.03,32.32-2.95.89-6.08,1.37-9.33,1.37-12.02,0-22.51-6.55-28.1-16.28,0,20.86,11.47,29.43,21.71,32.93,9.19,3.14,19.21,2.67,28.27-.85,20.03-7.79,34.23-27.26,34.23-50.05,0-29.66-24.04-53.7-53.69-53.7Z"/>
        <path class="cls-1" d="M78.24,1.33h93.37v34.16h-58.32l-1.68,6.07s-5.57-24.41-33.36-40.23h0Z"/>
        <path class="cls-2" d="M152.93,100.94c-.22.53-.75.88-1.35.88h-2.31v16.98c0,.77-.65,1.4-1.45,1.4h-11.68c-.8,0-1.45-.63-1.45-1.4v-10.36h-9.41s0,10.36,0,10.36c0,.77-.65,1.4-1.45,1.4h-11.64c-.8,0-1.45-.63-1.45-1.4v-16.96l-2.26.02h-.02c-.59,0-1.13-.35-1.35-.88-.23-.54-.08-1.15.35-1.55,0,0,18.42-16.8,21.36-19.49l.39-.36c.28-.26.64-.38.99-.38s.72.13,1,.39l21.35,19.8c.43.4.57,1.01.35,1.54h0Z"/>
        <path class="cls-2" d="M112.54,154.06c-5.55-3.85-9.94-9.31-12.77-15.91-2.97-6.94-4.43-14.29-4.33-21.87.08-6.26,1.06-12.48,2.84-17.98,1.02-3.16,2.36-6.22,3.66-9.17,1.35-3.07,2.74-6.24,3.73-9.45,3.57-11.6,3.92-25.75.93-37.85-1.4-5.65-3.59-10.78-6.53-15.23l-.29-.44c-1.59-2.41-3.39-5.15-5.42-7.01-.12-.11-.26-.24-.43-.41.03.07.06.14.09.21.55,1.27,1.02,2.65,1.41,4.18,1.04,4.08,1.33,8.62.87,13.48-.68,7.2-2.86,14.73-6.3,21.77-2.01,4.12-4.5,8.02-6.9,11.78-1.8,2.82-3.66,5.73-5.28,8.68-3.14,5.72-4.96,12.15-5.43,19.12-.22,3.27-.11,6.57.3,9.87.85,6.89,3.05,13.74,6.47,20.15,1.04,1.94,2.17,3.84,3.43,5.69,8.06,12.63,17.97,17.97,28.25,20.33.68.16,1.37.3,2.05.43-.13-.14-.24-.27-.33-.36Z"/>
        <path class="cls-1" d="M112.5,154.48c-.2-.13-.4-.27-.6-.41.09.09.2.22.33.36.09.02.18.04.27.05Z"/>
        <path class="cls-1" d="M71.02,67.96c.04-.05.11-.16.11-.16,10.88-15.1,2.17-38.87-18.44-38.87-12.91,0-23.38,7.23-23.38,24.3,0,1.89.21,3.74.6,5.51H.86c-.57-2.96-.86-6-.86-9.12C0,22.22,22.91-.09,51.16,0c10.14.03,19.67,2.67,27.8,7.22,4.63,2.59,8.32,6.6,10.69,11.36h0s.03.06.03.06c.84,1.5,1.49,3.22,2.01,5.26.95,3.73,1.21,7.91.79,12.41-.64,6.82-2.72,13.97-6,20.67-1.93,3.96-4.37,7.78-6.73,11.47-1.83,2.86-3.71,5.82-5.39,8.86-3.36,6.12-5.32,13-5.82,20.43-.3,4.51-.02,9.08.8,13.6l-12.58,16.62h18.15c1.28,2.55,2.72,5.03,4.35,7.43,7.97,12.48,17.87,18.29,27.88,21.06H.85l45.04-57.5c3.24-4.13,6.47-8.26,9.71-12.39"/>
      </g>
      <g>
        <g>
          <path class="cls-3" d="M2.94,227.5v11.75H0v-11.75h2.94Z"/>
          <path class="cls-3" d="M21.44,227.5v11.75h-2.43l-4.76-7.94c0,.2.01.33.02.4.02.2.04.37.04.51v7.04h-2.22v-11.75h3.07l4.13,6.93c-.04-.34-.05-.61-.05-.78v-6.15h2.2Z"/>
          <path class="cls-3" d="M34.85,239.26l-2.48-9.58v9.58h-1.97v-11.75h3.66l1.76,7.04,1.86-7.04h3.68v11.75h-2.37v-9.58l-2.53,9.58h-1.61Z"/>
          <path class="cls-3" d="M55.8,239.44c-1.58,0-2.81-.59-3.67-1.78-.87-1.19-1.3-2.63-1.3-4.31s.44-3.15,1.32-4.3c.88-1.15,2.13-1.72,3.75-1.72s2.88.61,3.71,1.84c.83,1.23,1.25,2.63,1.25,4.21,0,1.7-.43,3.14-1.29,4.31-.86,1.17-2.12,1.76-3.77,1.76ZM55.88,229.57c-1.44,0-2.17,1.27-2.17,3.81s.72,3.81,2.17,3.81,2.1-1.27,2.1-3.81-.7-3.81-2.1-3.81Z"/>
          <path class="cls-3" d="M69.31,227.5h5.48c.98,0,1.72.12,2.21.36.49.24.9.59,1.22,1.03s.48.99.48,1.63c0,1.3-.71,2.17-2.12,2.61.82.18,1.43.55,1.83,1.09s.61,1.14.61,1.78c0,.88-.33,1.64-1,2.28-.67.64-1.75.96-3.25.96h-5.48v-11.75ZM72.06,229.58v2.57h2.08c.76,0,1.24-.15,1.44-.45s.3-.59.3-.87c0-.3-.08-.56-.25-.77s-.34-.35-.54-.4-.58-.08-1.15-.08h-1.89ZM72.06,234.24v2.83h2.11c.72,0,1.23-.13,1.53-.38.3-.25.45-.61.45-1.06,0-.38-.14-.71-.43-.98-.29-.28-.76-.41-1.43-.41h-2.23Z"/>
          <path class="cls-3" d="M90.19,227.5v11.75h-2.75v-11.75h2.75Z"/>
          <path class="cls-3" d="M102.34,236.93h4.68v2.32h-7.47v-11.75h2.79v9.43Z"/>
          <path class="cls-3" d="M120.42,227.5v11.75h-2.75v-11.75h2.75Z"/>
          <path class="cls-3" d="M135.34,227.5l3.68,11.75h-2.96l-.72-2.42h-3.8l-.74,2.42h-2.41l3.77-11.75h3.19ZM132.19,234.67h2.49l-1.23-4.12-1.26,4.12Z"/>
          <path class="cls-3" d="M150.66,234.6v4.66h-2.77v-11.75h5.17c.95,0,1.72.11,2.29.33.58.22,1.05.63,1.43,1.22s.57,1.25.57,1.97c0,1.41-.68,2.42-2.04,3.04l2.17,5.2h-3.04l-1.8-4.66h-1.97ZM150.66,229.59v3h1.69c.55,0,.95-.04,1.2-.12s.47-.25.67-.52.29-.57.29-.92-.1-.62-.29-.88-.41-.42-.64-.48-.66-.09-1.29-.09h-1.63Z"/>
          <path class="cls-3" d="M168.77,227.5v11.75h-2.75v-11.75h2.75Z"/>
          <path class="cls-3" d="M183.48,227.5l3.68,11.75h-2.96l-.72-2.42h-3.8l-.74,2.42h-2.41l3.77-11.75h3.19ZM180.34,234.67h2.49l-1.23-4.12-1.26,4.12Z"/>
        </g>
        <path class="cls-3" d="M94.18,192.75l-24.05-22.37c-.35-.33-.91-.33-1.27,0l-24.56,22.37c-.18.17-.29.4-.29.64,0,.24.09.48.27.65.29.29.42.41,4.2.29v19.78c0,.5.41.9.92.9h13.02s.02,0,.03,0c.24,0,.48-.09.66-.26.22-.22.31-.53.25-.82-.05-.84-.02-7.47.01-12.1h11.86v12.29c0,.5.41.9.92.9h13.24c.51,0,.92-.4.92-.9v-19.81h3.22c.38,0,.72-.22.86-.57.14-.34.05-.73-.22-.99ZM89.4,192.5c-.51,0-.92.4-.92.9v19.81h-11.39v-12.29c0-.5-.41-.9-.92-.9h-13.7c-.51,0-.92.4-.92.89,0,0-.03,3.29-.04,6.58,0,1.65-.01,3.3,0,4.54,0,.45,0,.85,0,1.18h-11.17v-19.81c0-.24-.1-.48-.28-.65-.18-.17-.42-.26-.67-.25-.71.02-1.48.04-2.16.05l22.27-20.29,21.75,20.23h-1.84Z"/>
        <path class="cls-1" d="M17.74,214.99c-9.86-.4-17.74-8.51-17.74-18.47v-4.94c0-9.96,7.87-18.08,17.74-18.47l.76-.02h23.43v13.42h-23.5c-3.55,0-6.43,2.88-6.43,6.43v2.76c0,3.55,2.88,6.43,6.43,6.43h23.5v12.89h-23.43l-.76-.02Z"/>
        <path class="cls-1" d="M120.89,173.11c9.86.4,17.74,8.49,17.74,18.42v4.92c0,9.93-7.87,18.03-17.74,18.42l-.76.02h-23.43v-13.38s23.5,0,23.5,0c3.55,0,6.43-2.87,6.43-6.41v-2.75c0-3.54-2.88-6.41-6.43-6.41h-23.5v-12.86s23.43,0,23.43,0l.76.02Z"/>
        <path class="cls-1" d="M186.96,197.27c-.4,9.86-8.51,17.74-18.47,17.74h-4.94c-9.96,0-18.08-7.87-18.47-17.74l-.02-.76v-23.43h13.42v23.5c0,3.55,2.88,6.43,6.43,6.43h2.76c3.55,0,6.43-2.88,6.43-6.43v-23.5h12.89v23.43l-.02.76Z"/>
        <rect class="cls-3" y="220.72" width="186.98" height="1.13"/>
      </g>
    </g>
  </g>
</svg>